<svg xmlns="http://www.w3.org/2000/svg" viewBox="0 0 48 48" xmlns:xlink="http://www.w3.org/1999/xlink" xml:space="preserve" width="100%" height="100%"><path xmlns="http://www.w3.org/2000/svg" fill="currentColor" fill-rule="evenodd" d="M6 9a6 6 0 0 1 6-6h1.5v3h3v3h-3v3h3v3h-3v3h3v3H21v-3h-3v-3h3v-3h-3V9h3V6h-3V3h9.879A3 3 0 0 1 30 3.879L41.121 15A3 3 0 0 1 42 17.121V39a6 6 0 0 1-6 6H12a6 6 0 0 1-6-6zm21 6V6l12 12h-9a3 3 0 0 1-3-3m-10.5 7.5a3 3 0 0 0-3 3v2.814l-1.2 4.797a3 3 0 0 0 1.248 3.222l2.79 1.86a3 3 0 0 0 3.327 0l2.79-1.86a3 3 0 0 0 1.245-3.222l-1.2-4.797V25.5a3 3 0 0 0-3-3zm0 5.814V25.5h3v2.814a3 3 0 0 0 .09.729l1.2 4.794-2.79 1.86-2.79-1.86 1.2-4.794a3 3 0 0 0 .09-.729" style="fill: rgb(193, 195, 68);"></path></svg>