<svg xmlns="http://www.w3.org/2000/svg" viewBox="0 0 48 48" xmlns:xlink="http://www.w3.org/1999/xlink" xml:space="preserve" width="100%" height="100%"><path xmlns="http://www.w3.org/2000/svg" d="M41.84 31.24a2.4 2.4 0 0 0-.42-.66l-6-6a2.008 2.008 0 0 0-2.84 2.84l2.6 2.58H24a2 2 0 0 0 0 4h11.18l-2.6 2.58a2 2 0 0 0 0 2.84 2 2 0 0 0 2.84 0l6-6a1.8 1.8 0 0 0 .42-.66 2 2 0 0 0 0-1.52M28 40H12a2 2 0 0 1-2-2V10a2 2 0 0 1 2-2h10v6a6 6 0 0 0 6 6h8a2 2 0 0 0 1.84-1.24 2 2 0 0 0-.42-2.18l-12-12a2 2 0 0 0-.56-.38h-.18l-.56-.2H12a6 6 0 0 0-6 6v28a6 6 0 0 0 6 6h16a2 2 0 0 0 0-4m-2-29.18L31.18 16H28a2 2 0 0 1-2-2z" style="fill: rgb(53, 142, 167);"></path></svg>